<svg xmlns="http://www.w3.org/2000/svg" xmlns:xlink="http://www.w3.org/1999/xlink" viewBox="0 0 473 387">
  <defs>
    <style>
      .cls-1 {
        clip-path: url(#clip-Artboard_1);
      }

      .cls-11, .cls-2 {
        fill: #fff;
      }

      .cls-2, .cls-4, .cls-7 {
        stroke: #707070;
      }

      .cls-3, .cls-5, .cls-6, .cls-8 {
        fill: #707070;
        font-family: HelveticaNeue, Helvetica Neue;
      }

      .cls-3 {
        font-size: 20px;
      }

      .cls-10, .cls-4, .cls-7 {
        fill: none;
      }

      .cls-5 {
        font-size: 14px;
      }

      .cls-6 {
        font-size: 13px;
      }

      .cls-7 {
        stroke-dasharray: 4;
      }

      .cls-8 {
        font-size: 10px;
      }

      .cls-9 {
        stroke: none;
      }
    </style>
    <clipPath id="clip-Artboard_1">
      <rect width="473" height="387"/>
    </clipPath>
  </defs>
  <g id="Artboard_1" data-name="Artboard – 1" class="cls-1">
    <rect class="cls-11" width="473" height="387"/>
    <g id="Group_16" data-name="Group 16" transform="translate(53 2)">
      <g id="Group_1" data-name="Group 1" transform="translate(8)">
        <g id="Rectangle_1" data-name="Rectangle 1" class="cls-2" transform="translate(36 31)">
          <rect class="cls-9" width="115" height="117"/>
          <rect class="cls-10" x="0.5" y="0.5" width="114" height="116"/>
        </g>
        <text id="Pizza" class="cls-3" transform="translate(94 54)"><tspan x="-23.67" y="0">Pizza</tspan></text>
        <line id="Line_1" data-name="Line 1" class="cls-4" x2="114" transform="translate(36.5 62.5)"/>
        <text id="Nome_string_Prezzo_float_" data-name="Nome (string)
Prezzo (float)" class="cls-5" transform="translate(41 67)"><tspan x="0" y="13">Nome (string)</tspan><tspan x="0" y="29">Prezzo (float)</tspan></text>
      </g>
      <g id="Group_2" data-name="Group 2" transform="translate(180)">
        <g id="Rectangle_1-2" data-name="Rectangle 1" class="cls-2" transform="translate(36 31)">
          <rect class="cls-9" width="115" height="117"/>
          <rect class="cls-10" x="0.5" y="0.5" width="114" height="116"/>
        </g>
        <text id="Ingrediente" class="cls-3" transform="translate(93 54)"><tspan x="-50.01" y="0">Ingrediente</tspan></text>
        <line id="Line_1-2" data-name="Line 1" class="cls-4" x2="114" transform="translate(36.5 62.5)"/>
        <text id="Nome_string_Quantità_int_" data-name="Nome (string)
Quantità (int)" class="cls-5" transform="translate(41 67)"><tspan x="0" y="13">Nome (string)</tspan><tspan x="0" y="29">Quantità (int)</tspan></text>
      </g>
      <g id="Group_3" data-name="Group 3" transform="translate(0 175)">
        <g id="Rectangle_1-3" data-name="Rectangle 1" class="cls-2" transform="translate(36 31)">
          <rect class="cls-9" width="130" height="147"/>
          <rect class="cls-10" x="0.5" y="0.5" width="129" height="146"/>
        </g>
        <text id="Utente" class="cls-3" transform="translate(101 54)"><tspan x="-29.82" y="0">Utente</tspan></text>
        <line id="Line_1-3" data-name="Line 1" class="cls-4" x2="129" transform="translate(36.5 62.5)"/>
        <text id="Nome_string_Cognome_string_Indirizzo_string_Telefono_string_Login_string_Password_string_" data-name="Nome (string)
Cognome (string)
Indirizzo (string)
Telefono (string)
Login (string)
Password (string)" class="cls-5" transform="translate(41 67)"><tspan x="0" y="13">Nome (string)</tspan><tspan x="0" y="29">Cognome (string)</tspan><tspan x="0" y="45">Indirizzo (string)</tspan><tspan x="0" y="61">Telefono (string)</tspan><tspan x="0" y="77">Login (string)</tspan><tspan x="0" y="93">Password (string)</tspan></text>
      </g>
      <g id="Group_4" data-name="Group 4" transform="translate(180 175)">
        <g id="Rectangle_1-4" data-name="Rectangle 1" class="cls-2" transform="translate(36 31)">
          <rect class="cls-9" width="115" height="117"/>
          <rect class="cls-10" x="0.5" y="0.5" width="114" height="116"/>
        </g>
        <text id="Ordine" class="cls-3" transform="translate(93 54)"><tspan x="-29.83" y="0">Ordine</tspan></text>
        <line id="Line_1-4" data-name="Line 1" class="cls-4" x2="114" transform="translate(36.5 62.5)"/>
        <text id="Data_datetime_Indirizzo_string_" data-name="Data (datetime)
Indirizzo (string)" class="cls-5" transform="translate(41 67)"><tspan x="0" y="13">Data (datetime)</tspan><tspan x="0" y="29">Indirizzo (string)</tspan></text>
      </g>
      <path id="Path_1" data-name="Path 1" class="cls-4" d="M158.594,127.31h29.914v96.774h27.857"/>
      <line id="Line_2" data-name="Line 2" class="cls-4" x2="58" transform="translate(158.5 89.5)"/>
      <g id="Rectangle_2" data-name="Rectangle 2" class="cls-2" transform="translate(216 156)">
        <rect class="cls-9" width="116" height="37"/>
        <rect class="cls-10" x="0.5" y="0.5" width="115" height="36"/>
      </g>
      <text id="Quantità_int_" data-name="Quantità (int)" class="cls-6" transform="translate(237 179)"><tspan x="0" y="0">Quantità (int)</tspan></text>
      <line id="Line_3" data-name="Line 3" class="cls-7" x2="29" transform="translate(188.5 174.5)"/>
      <line id="Line_4" data-name="Line 4" class="cls-4" x2="51" transform="translate(165.5 283.5)"/>
      <g id="Group_5" data-name="Group 5">
        <line id="Line_5" data-name="Line 5" class="cls-4" y1="5" x2="7" transform="translate(165.5 278.5)"/>
        <line id="Line_6" data-name="Line 6" class="cls-4" x1="7" y1="5" transform="translate(165.5 283.5)"/>
      </g>
      <g id="Group_6" data-name="Group 6" transform="translate(44)">
        <line id="Line_5-2" data-name="Line 5" class="cls-4" x1="7.001" y1="5" transform="translate(165.5 278.5)"/>
        <line id="Line_6-2" data-name="Line 6" class="cls-4" y1="5" x2="7.001" transform="translate(165.5 283.5)"/>
      </g>
      <line id="Line_7" data-name="Line 7" class="cls-4" y2="10" transform="translate(201.5 278.5)"/>
      <g id="Group_7" data-name="Group 7" transform="translate(39)">
        <line id="Line_5-3" data-name="Line 5" class="cls-4" x1="7.001" y1="5" transform="translate(165.5 278.5)"/>
        <line id="Line_6-3" data-name="Line 6" class="cls-4" y1="5" x2="7.001" transform="translate(165.5 283.5)"/>
      </g>
      <g id="Group_8" data-name="Group 8" transform="translate(44 -59.5)">
        <line id="Line_5-4" data-name="Line 5" class="cls-4" x1="7.001" y1="5" transform="translate(165.5 278.5)"/>
        <line id="Line_6-4" data-name="Line 6" class="cls-4" y1="5" x2="7.001" transform="translate(165.5 283.5)"/>
      </g>
      <g id="Group_9" data-name="Group 9" transform="translate(39 -59.5)">
        <line id="Line_5-5" data-name="Line 5" class="cls-4" x1="7.001" y1="5" transform="translate(165.5 278.5)"/>
        <line id="Line_6-5" data-name="Line 6" class="cls-4" y1="5" x2="7.001" transform="translate(165.5 283.5)"/>
      </g>
      <g id="Group_12" data-name="Group 12" transform="translate(-0.999 0.5)">
        <g id="Group_10" data-name="Group 10" transform="translate(159.5 122)">
          <line id="Line_5-6" data-name="Line 5" class="cls-4" y1="5" x2="7.001"/>
          <line id="Line_6-6" data-name="Line 6" class="cls-4" x1="7.001" y1="5" transform="translate(0 5)"/>
        </g>
        <g id="Group_11" data-name="Group 11" transform="translate(164.499 122)">
          <line id="Line_5-7" data-name="Line 5" class="cls-4" y1="5" x2="7.001"/>
          <line id="Line_6-7" data-name="Line 6" class="cls-4" x1="7.001" y1="5" transform="translate(0 5)"/>
        </g>
      </g>
      <g id="Group_13" data-name="Group 13" transform="translate(-0.999 -37.5)">
        <g id="Group_10-2" data-name="Group 10" transform="translate(159.5 122)">
          <line id="Line_5-8" data-name="Line 5" class="cls-4" y1="5" x2="7.001"/>
          <line id="Line_6-8" data-name="Line 6" class="cls-4" x1="7.001" y1="5" transform="translate(0 5)"/>
        </g>
        <g id="Group_11-2" data-name="Group 11" transform="translate(164.499 122)">
          <line id="Line_5-9" data-name="Line 5" class="cls-4" y1="5" x2="7.001"/>
          <line id="Line_6-9" data-name="Line 6" class="cls-4" x1="7.001" y1="5" transform="translate(0 5)"/>
        </g>
      </g>
      <g id="Group_14" data-name="Group 14" transform="translate(44 -194)">
        <line id="Line_5-10" data-name="Line 5" class="cls-4" x1="7.001" y1="5" transform="translate(165.5 278.5)"/>
        <line id="Line_6-10" data-name="Line 6" class="cls-4" y1="5" x2="7.001" transform="translate(165.5 283.5)"/>
      </g>
      <g id="Group_15" data-name="Group 15" transform="translate(39 -194)">
        <line id="Line_5-11" data-name="Line 5" class="cls-4" x1="7.001" y1="5" transform="translate(165.5 278.5)"/>
        <line id="Line_6-11" data-name="Line 6" class="cls-4" y1="5" x2="7.001" transform="translate(165.5 283.5)"/>
      </g>
      <text id="contiene" class="cls-8" transform="translate(167 81)"><tspan x="0" y="0">contiene</tspan></text>
      <text id="effettua" class="cls-8" transform="translate(172 299)"><tspan x="0" y="0">effettua</tspan></text>
      <text id="compare_in" data-name="compare in" class="cls-8" transform="translate(177 151) rotate(90)"><tspan x="0" y="0">compare in</tspan></text>
      <line id="Line_8" data-name="Line 8" class="cls-4" y2="10" transform="translate(176.5 84.5)"/>
      <line id="Line_9" data-name="Line 9" class="cls-4" y2="10" transform="translate(201.5 219.5)"/>
    </g>
  </g>
</svg>
